<mxfile host="app.diagrams.net" modified="2023-08-25T16:42:10.033Z" agent="Mozilla/5.0 (X11; Linux x86_64; rv:109.0) Gecko/20100101 Firefox/111.0" etag="aiCUkQD_XjCywlmsEXXx" version="21.6.9" type="github">
  <diagram id="R2lEEEUBdFMjLlhIrx00" name="Page-1">
    <mxGraphModel dx="1434" dy="718" grid="1" gridSize="10" guides="1" tooltips="1" connect="1" arrows="1" fold="1" page="1" pageScale="1" pageWidth="850" pageHeight="1100" math="0" shadow="0" extFonts="Permanent Marker^https://fonts.googleapis.com/css?family=Permanent+Marker">
      <root>
        <mxCell id="0" />
        <mxCell id="1" parent="0" />
        <mxCell id="El2mkK2lUukpQP3xKzcr-1" value="floricultura" style="swimlane;childLayout=stackLayout;horizontal=1;startSize=50;horizontalStack=0;rounded=1;fontSize=14;fontStyle=0;strokeWidth=2;resizeParent=0;resizeLast=1;shadow=0;dashed=0;align=center;arcSize=4;whiteSpace=wrap;html=1;" vertex="1" parent="1">
          <mxGeometry x="100" y="220" width="160" height="120" as="geometry" />
        </mxCell>
        <mxCell id="El2mkK2lUukpQP3xKzcr-5" value="clientes" style="swimlane;childLayout=stackLayout;horizontal=1;startSize=50;horizontalStack=0;rounded=1;fontSize=14;fontStyle=0;strokeWidth=2;resizeParent=0;resizeLast=1;shadow=0;dashed=0;align=center;arcSize=4;whiteSpace=wrap;html=1;" vertex="1" parent="1">
          <mxGeometry x="510" y="220" width="160" height="120" as="geometry" />
        </mxCell>
        <mxCell id="El2mkK2lUukpQP3xKzcr-6" value="&lt;div&gt;RG&lt;/div&gt;&lt;div&gt;nome&lt;/div&gt;&lt;div&gt;telefone&lt;/div&gt;&lt;div&gt;endereço&lt;br&gt;&lt;/div&gt;" style="align=left;strokeColor=none;fillColor=none;spacingLeft=4;fontSize=12;verticalAlign=top;resizable=0;rotatable=0;part=1;html=1;" vertex="1" parent="El2mkK2lUukpQP3xKzcr-5">
          <mxGeometry y="50" width="160" height="70" as="geometry" />
        </mxCell>
        <mxCell id="El2mkK2lUukpQP3xKzcr-8" value="produtos" style="swimlane;childLayout=stackLayout;horizontal=1;startSize=50;horizontalStack=0;rounded=1;fontSize=14;fontStyle=0;strokeWidth=2;resizeParent=0;resizeLast=1;shadow=0;dashed=0;align=center;arcSize=4;whiteSpace=wrap;html=1;" vertex="1" parent="1">
          <mxGeometry x="930" y="220" width="160" height="120" as="geometry" />
        </mxCell>
        <mxCell id="El2mkK2lUukpQP3xKzcr-9" value="&lt;div&gt;nome &lt;br&gt;&lt;/div&gt;&lt;div&gt;tipo &lt;br&gt;&lt;/div&gt;&lt;div&gt;preço&lt;br&gt;&lt;/div&gt;" style="align=left;strokeColor=none;fillColor=none;spacingLeft=4;fontSize=12;verticalAlign=top;resizable=0;rotatable=0;part=1;html=1;" vertex="1" parent="El2mkK2lUukpQP3xKzcr-8">
          <mxGeometry y="50" width="160" height="70" as="geometry" />
        </mxCell>
        <mxCell id="El2mkK2lUukpQP3xKzcr-10" value="Registro" style="swimlane;childLayout=stackLayout;horizontal=1;startSize=50;horizontalStack=0;rounded=1;fontSize=14;fontStyle=0;strokeWidth=2;resizeParent=0;resizeLast=1;shadow=0;dashed=0;align=center;arcSize=4;whiteSpace=wrap;html=1;" vertex="1" parent="1">
          <mxGeometry x="700" y="580" width="160" height="120" as="geometry" />
        </mxCell>
        <mxCell id="El2mkK2lUukpQP3xKzcr-11" value="&lt;div&gt;data&lt;/div&gt;&lt;div&gt;valor&lt;/div&gt;&lt;div&gt;produtos&lt;br&gt;&lt;/div&gt;" style="align=left;strokeColor=none;fillColor=none;spacingLeft=4;fontSize=12;verticalAlign=top;resizable=0;rotatable=0;part=1;html=1;" vertex="1" parent="El2mkK2lUukpQP3xKzcr-10">
          <mxGeometry y="50" width="160" height="70" as="geometry" />
        </mxCell>
        <mxCell id="El2mkK2lUukpQP3xKzcr-26" style="edgeStyle=orthogonalEdgeStyle;rounded=0;orthogonalLoop=1;jettySize=auto;html=1;exitX=0;exitY=0.5;exitDx=0;exitDy=0;entryX=1;entryY=0;entryDx=0;entryDy=0;" edge="1" parent="1" source="El2mkK2lUukpQP3xKzcr-14" target="El2mkK2lUukpQP3xKzcr-6">
          <mxGeometry relative="1" as="geometry" />
        </mxCell>
        <mxCell id="El2mkK2lUukpQP3xKzcr-27" style="edgeStyle=orthogonalEdgeStyle;rounded=0;orthogonalLoop=1;jettySize=auto;html=1;" edge="1" parent="1" source="El2mkK2lUukpQP3xKzcr-14">
          <mxGeometry relative="1" as="geometry">
            <mxPoint x="930" y="290" as="targetPoint" />
          </mxGeometry>
        </mxCell>
        <mxCell id="El2mkK2lUukpQP3xKzcr-28" style="edgeStyle=orthogonalEdgeStyle;rounded=0;orthogonalLoop=1;jettySize=auto;html=1;exitX=0.5;exitY=1;exitDx=0;exitDy=0;entryX=0.438;entryY=0;entryDx=0;entryDy=0;entryPerimeter=0;" edge="1" parent="1" source="El2mkK2lUukpQP3xKzcr-14" target="El2mkK2lUukpQP3xKzcr-10">
          <mxGeometry relative="1" as="geometry" />
        </mxCell>
        <mxCell id="El2mkK2lUukpQP3xKzcr-14" value="comprar" style="shape=rhombus;perimeter=rhombusPerimeter;whiteSpace=wrap;html=1;align=center;" vertex="1" parent="1">
          <mxGeometry x="720" y="240" width="120" height="60" as="geometry" />
        </mxCell>
        <mxCell id="El2mkK2lUukpQP3xKzcr-25" value="" style="edgeStyle=orthogonalEdgeStyle;rounded=0;orthogonalLoop=1;jettySize=auto;html=1;" edge="1" parent="1" source="El2mkK2lUukpQP3xKzcr-15" target="El2mkK2lUukpQP3xKzcr-6">
          <mxGeometry relative="1" as="geometry" />
        </mxCell>
        <mxCell id="El2mkK2lUukpQP3xKzcr-15" value="tem" style="shape=rhombus;perimeter=rhombusPerimeter;whiteSpace=wrap;html=1;align=center;" vertex="1" parent="1">
          <mxGeometry x="325" y="250" width="120" height="60" as="geometry" />
        </mxCell>
        <mxCell id="El2mkK2lUukpQP3xKzcr-16" value="" style="endArrow=none;html=1;rounded=0;" edge="1" parent="1">
          <mxGeometry relative="1" as="geometry">
            <mxPoint x="260" y="279.5" as="sourcePoint" />
            <mxPoint x="330" y="279.5" as="targetPoint" />
          </mxGeometry>
        </mxCell>
        <mxCell id="El2mkK2lUukpQP3xKzcr-18" value="1" style="resizable=0;html=1;whiteSpace=wrap;align=right;verticalAlign=bottom;" connectable="0" vertex="1" parent="El2mkK2lUukpQP3xKzcr-16">
          <mxGeometry x="1" relative="1" as="geometry">
            <mxPoint x="-50" y="1" as="offset" />
          </mxGeometry>
        </mxCell>
        <mxCell id="El2mkK2lUukpQP3xKzcr-29" value="N" style="resizable=0;html=1;whiteSpace=wrap;align=right;verticalAlign=bottom;" connectable="0" vertex="1" parent="1">
          <mxGeometry x="500" y="300" as="geometry" />
        </mxCell>
        <mxCell id="El2mkK2lUukpQP3xKzcr-31" value="1" style="resizable=0;html=1;whiteSpace=wrap;align=right;verticalAlign=bottom;" connectable="0" vertex="1" parent="1">
          <mxGeometry x="690" y="250" as="geometry" />
        </mxCell>
        <mxCell id="El2mkK2lUukpQP3xKzcr-34" value="n" style="resizable=0;html=1;whiteSpace=wrap;align=right;verticalAlign=bottom;" connectable="0" vertex="1" parent="1">
          <mxGeometry x="920" y="320" as="geometry" />
        </mxCell>
        <mxCell id="El2mkK2lUukpQP3xKzcr-35" value="n" style="resizable=0;html=1;whiteSpace=wrap;align=right;verticalAlign=bottom;" connectable="0" vertex="1" parent="1">
          <mxGeometry x="900" y="240" as="geometry">
            <mxPoint x="24" y="46" as="offset" />
          </mxGeometry>
        </mxCell>
        <mxCell id="El2mkK2lUukpQP3xKzcr-36" value="n" style="resizable=0;html=1;whiteSpace=wrap;align=right;verticalAlign=bottom;" connectable="0" vertex="1" parent="1">
          <mxGeometry x="300" y="310" as="geometry">
            <mxPoint x="383" y="-25" as="offset" />
          </mxGeometry>
        </mxCell>
      </root>
    </mxGraphModel>
  </diagram>
</mxfile>
